name C:\Users\tom_v\MusculoskeletalSpecialization_revisited\Results\Case_15\motion.mot
datacolumns 32
datarows 17
range 0.35921936 0.43585283
endheader 
time	pelvis_tilt	pelvis_list	pelvis_rotation	pelvis_tx	pelvis_ty	pelvis_tz	hip_flexion_r	hip_adduction_r	hip_rotation_r	knee_angle_r	ankle_angle_r	subtalar_angle_r	mtp_angle_r	hip_flexion_l	hip_adduction_l	hip_rotation_l	knee_angle_l	ankle_angle_l	subtalar_angle_l	mtp_angle_l	lumbar_extension	lumbar_bending	lumbar_rotation	arm_flex_r	arm_add_r	arm_rot_r	elbow_flex_r	arm_flex_l	arm_add_l	arm_rot_l	elbow_flex_l	
          0.35921936	         -6.23411204	         -9.78717383	         22.72745593	          2.94299937	          1.01504069	         -0.01562442	         52.98405747	         -5.46517787	         -9.98517528	        -49.06348249	         20.48881299	         -1.55328157	          1.38951828	          2.40618458	        -17.82280102	          9.90503026	        -40.18809828	        -26.13345711	         -0.28160267	          4.37359263	        -12.05146017	         10.28177024	        -28.06551116	        -69.62477521	        -20.59257065	        -12.41796490	         12.08305109	         49.53769767	         -1.82949033	         12.60842582	         50.44257088	
          0.36400896	         -5.57322539	         -9.25269599	         23.13691875	          2.98297191	          1.01798485	         -0.01482619	         51.92503205	         -5.59394736	         -9.85322989	        -47.42386021	         21.63988556	         -1.05876010	          3.10765554	          1.84769559	        -17.87980729	          9.75204265	        -41.02621812	        -25.86483703	          0.07473389	          5.14864663	        -12.53701169	         10.40534329	        -29.40074933	        -69.33574905	        -18.55473360	        -11.95276626	         11.16021030	         48.02355414	         -5.25416308	          9.74382837	         39.50722072	
          0.36879855	         -4.86171599	         -8.63227314	         23.44168769	          3.02321993	          1.02079809	         -0.01374516	         50.65035737	         -5.61069904	         -9.59012442	        -45.64575957	         22.96130659	         -0.95409757	          3.95834726	          1.21940068	        -17.88312596	          9.48518084	        -41.79886788	        -25.63846133	          0.89757570	          5.71991325	        -13.09956562	         10.51694747	        -31.04371673	        -69.65348044	        -17.12189427	        -12.68669149	         10.74748667	         45.74886960	        -10.18973912	          8.41256231	         29.78835940	
          0.37358814	         -4.11441645	         -7.92626745	         23.60584150	          3.06360538	          1.02342221	         -0.01231303	         49.21885459	         -5.51367744	         -9.18099763	        -43.79213242	         24.32290534	         -1.49719533	          2.23795476	          0.55097067	        -17.81453905	          9.07594464	        -42.55720693	        -25.37896061	          1.72108823	          6.05143177	        -13.78295623	         10.55119730	        -32.89823374	        -69.98921026	        -16.47769595	        -13.03392670	          9.54284713	         43.16483233	        -16.07230139	          9.94708152	         19.62791903	
          0.37837773	         -3.46117993	         -7.29001057	         23.52092935	          3.10407337	          1.02555256	         -0.01043957	         47.84821485	         -5.19442970	         -8.63718611	        -41.89674425	         25.30466459	         -2.60981601	         -0.31444334	          0.02070299	        -17.76235147	          8.44267047	        -43.36296186	        -24.89149055	          2.44926139	          6.26797427	        -14.45253965	         10.56662834	        -34.77263979	        -69.91034532	        -16.69718849	        -12.48365305	          6.82516508	         39.72788471	        -22.11150747	         13.54457420	          9.96036625	
          0.38316732	         -2.96985873	         -6.89197343	         22.97058606	          3.14469496	          1.02696401	         -0.00798850	         46.69238298	         -4.44349157	         -7.93787534	        -39.97033211	         25.93998636	         -3.72615855	         -2.29097435	         -0.33173054	        -17.84330770	          7.39935279	        -44.21885791	        -24.18583870	          3.11725464	          6.38641836	        -15.02538815	         10.67140353	        -36.27848518	        -69.93072808	        -17.62221565	        -13.12987000	          4.46858388	         34.52567968	        -27.90836821	         17.64561793	          2.88196998	
          0.38795691	         -2.58938250	         -6.73582313	         21.71271380	          3.18555466	          1.02779500	         -0.00477240	         45.71275521	         -3.11807435	         -7.02145207	        -38.01352458	         26.25579117	         -4.35776693	         -1.44465420	         -0.69829205	        -18.04485371	          5.75594584	        -45.05753889	        -23.46947103	          3.74710404	          6.32270601	        -15.62309245	         10.82479144	        -36.99197463	        -69.99441015	        -19.34449241	        -11.03779558	          2.46929673	         27.00893372	        -33.35744212	         19.34771941	          0.00580529	
          0.39274651	         -2.25936855	         -6.74745228	         19.68936682	          3.22655438	          1.02826238	         -0.00081720	         44.78614932	         -1.28041611	         -5.96919889	        -36.01863027	         26.70123404	         -4.18914640	          1.05153495	         -1.21628270	        -18.26905493	          3.53940367	        -45.85323559	        -22.85746342	          4.42729622	          6.41927178	        -16.37867624	         10.94611615	        -36.71838638	        -69.92562202	        -21.65366087	         -3.02716578	          0.58013040	         16.96085113	        -38.23020198	         13.25461722	          2.30687386	
          0.39753610	         -2.02967435	         -6.93810950	         17.20561935	          3.26733279	          1.02833388	          0.00334637	         43.88411119	          0.78085947	         -5.16317385	        -33.96643696	         27.38935965	         -3.55078560	          2.94723543	         -1.65744113	        -18.47474247	          1.17103737	        -46.71712083	        -22.19119382	          5.25544179	          6.49088010	        -17.19886145	         11.07496321	        -35.59692188	        -69.99950496	        -24.14192569	          7.49091325	          0.02506322	          5.40890745	        -41.38394577	          0.25600526	          7.60241448	
          0.40232569	         -2.00950782	         -7.30749454	         14.68137366	          3.30756787	          1.02796991	          0.00702402	         43.05080106	          2.72640405	         -4.98776107	        -31.83528072	         28.00047429	         -3.11893462	          3.37747351	         -1.66895705	        -18.63256012	         -0.82091429	        -47.75841089	        -21.43304499	          6.12468982	          6.13283417	        -17.85364708	         11.26379382	        -33.86722462	        -69.85652514	        -26.38219684	         16.41101389	          0.13757933	         -3.79847825	        -42.42726715	        -10.14989438	          9.82005151	
          0.40711528	         -2.27772182	         -7.72476436	         12.32267703	          3.34721868	          1.02719049	          0.00986510	         42.33143518	          4.32402683	         -5.53433391	        -29.66147878	         28.31970590	         -3.17862489	          2.80458253	         -1.09749096	        -18.62260529	         -2.18557003	        -48.96706119	        -20.75664791	          6.88650614	          5.97864201	        -18.20349071	         11.46631247	        -31.71962592	        -69.66301612	        -28.13860834	         19.37719407	          1.54818832	         -8.98740115	        -42.59951333	        -13.19547094	          7.50130282	
          0.41190487	         -2.70967270	         -8.04594657	         10.16819877	          3.38641658	          1.02627197	          0.01184270	         41.57851273	          5.52708267	         -6.65502542	        -27.46992979	         28.46870134	         -3.47345474	          1.70179420	         -0.12481740	        -18.37360770	         -2.96349268	        -50.24222287	        -20.05670709	          7.64114889	          6.21291429	        -18.40562349	         11.61890236	        -29.29323058	        -69.71614735	        -29.41450099	         16.10880802	          5.21549590	        -11.38274866	        -42.18819325	        -12.58776071	          3.57169811	
          0.41669446	         -3.21307765	         -8.16941961	          8.15379204	          3.42529667	          1.02539103	          0.01316112	         40.71278063	          6.38623199	         -7.97417913	        -25.30600838	         28.64108048	         -3.65405048	         -0.09981654	          1.07141564	        -17.84023229	         -3.34250140	        -51.49262775	        -19.02662349	          8.48723689	          5.03940917	        -18.58206432	         11.63181865	        -26.62323150	        -69.97034458	        -29.78981136	          8.12823140	         10.83325412	        -12.34739155	        -41.16658421	        -12.70413257	          0.83158156	
          0.42148405	         -3.76491505	         -8.02182114	          6.22297072	          3.46391173	          1.02462032	          0.01409375	         39.75121872	          6.94123679	         -9.08271384	        -23.22629034	         28.77941777	         -3.71909712	         -2.48762151	          2.42676621	        -16.99474704	         -3.49720387	        -52.65410160	        -17.67706851	          9.27355328	         -0.41171384	        -18.75356118	         11.38939959	        -23.67403041	        -69.45182471	        -28.70160726	         -0.94925454	         16.18557869	        -12.28929607	        -39.80450425	        -12.74907325	          0.04327900	
          0.42627365	         -4.34311568	         -7.57787420	          4.39929666	          3.50225539	          1.02402327	          0.01483201	         38.71272262	          7.19466705	         -9.75608602	        -21.24534483	         28.46213317	         -3.92977522	         -2.88690469	          3.94048007	        -15.85947139	         -3.49219562	        -53.67412337	        -17.25803203	          9.80787071	         -3.30862233	        -18.92345450	         10.80444096	        -20.47186177	        -66.66095305	        -26.49681691	         -6.33520152	         18.16975040	        -11.53686727	        -38.36251488	        -11.70362901	          1.73596713	
          0.43106324	         -4.91132079	         -6.90967628	          2.73818155	          3.54031639	          1.02357531	          0.01542046	         37.59752859	          7.18056152	         -9.99523363	        -19.34458444	         27.70510959	         -4.17177273	          0.01035973	          5.60750385	        -14.54602318	         -3.32684939	        -54.59711293	        -17.06809277	         10.64342928	         -0.53125758	        -19.08973573	          9.92325881	        -17.12701084	        -61.19493187	        -24.01400985	         -5.54313963	         15.51512440	        -10.72760883	        -36.98446330	        -10.28410681	          6.95105866	
          0.43585283	         -5.46080489	         -6.14329502	          1.26341557	          3.57809343	          1.02310944	          0.01580530	         36.43142792	          6.97357051	         -9.91063860	        -17.52491449	         26.94279637	         -4.05506949	          2.44496809	          7.43472309	        -13.20119122	         -3.02818272	        -55.50367725	        -15.62680749	         11.90987574	          1.45444287	        -19.21235645	          8.89915411	        -13.80644613	        -53.93407379	        -21.47941124	          0.67762128	         10.02944433	        -10.32169371	        -35.53238388	         -9.83976959	         15.88611688	
